<svg width="197" height="62" viewBox="0 0 197 62" fill="none" xmlns="http://www.w3.org/2000/svg">
<path fill-rule="evenodd" clip-rule="evenodd" d="M16.9745 17.9133C16.6737 18.2405 16.5 18.7405 16.5 19.3948V42.6043C16.5 43.2587 16.6737 43.7586 16.9849 44.0727L17.0653 44.1434L29.9473 31.1396V30.8491L17.0549 17.8427L16.9745 17.9133Z" fill="url(#paint0_linear_993_833)"/>
<path fill-rule="evenodd" clip-rule="evenodd" d="M34.2331 35.4871L29.9365 31.1499V30.8463L34.2331 26.509L34.3265 26.5666L39.4088 29.4825C40.8635 30.3097 40.8635 31.676 39.4088 32.5136L34.3265 35.4295L34.2331 35.4871Z" fill="url(#paint1_linear_993_833)"/>
<path fill-rule="evenodd" clip-rule="evenodd" d="M34.3269 35.43L29.937 30.9986L16.9746 44.0835C17.4491 44.5966 18.2452 44.6542 19.1346 44.1542L34.3269 35.43Z" fill="url(#paint2_linear_993_833)"/>
<path fill-rule="evenodd" clip-rule="evenodd" d="M34.3269 26.567L19.1346 17.856C18.2452 17.3429 17.4465 17.4136 16.9746 17.9266L29.937 30.9985L34.3269 26.567Z" fill="url(#paint3_linear_993_833)"/>
<path opacity="0.2" fill-rule="evenodd" clip-rule="evenodd" d="M34.2336 35.336L19.1448 43.9895C18.3021 44.4789 17.5501 44.4449 17.0652 43.9999L16.9849 44.0811L17.0652 44.1517C17.5501 44.5941 18.3021 44.6307 19.1448 44.1413L34.3373 35.4302L34.2336 35.336Z" fill="black"/>
<path opacity="0.12" fill-rule="evenodd" clip-rule="evenodd" d="M39.4093 32.3623L34.2207 35.3358L34.3141 35.43L39.3963 32.5141C40.1249 32.0953 40.4828 31.5457 40.4828 30.9986C40.4387 31.5012 40.0679 31.9775 39.4093 32.3623Z" fill="black"/>
<path opacity="0.25" fill-rule="evenodd" clip-rule="evenodd" d="M19.1345 18.0076L39.4091 29.6346C40.0677 30.0089 40.4385 30.4984 40.4956 30.9984C40.4956 30.4513 40.1377 29.9016 39.4091 29.4828L19.1345 17.8558C17.6798 17.0156 16.5 17.7171 16.5 19.3949V19.5467C16.5 17.8663 17.6798 17.1779 19.1345 18.0076Z" fill="white"/>
<path d="M63.964 30.3262C63.73 31.7482 63.118 32.9002 62.11 33.7642C61.084 34.6462 59.842 35.0782 58.366 35.0782C56.89 35.0782 55.63 34.5382 54.568 33.4402C53.506 32.3602 52.984 31.0462 52.984 29.5162C52.984 27.9862 53.506 26.6722 54.568 25.5922C55.63 24.5122 56.962 23.9722 58.564 23.9722C60.166 23.9722 61.534 24.6022 62.668 25.8622L63.892 24.6922C62.434 23.1082 60.67 22.3162 58.582 22.3162C56.494 22.3162 54.748 23.0182 53.344 24.4222C51.94 25.8262 51.238 27.5182 51.238 29.5162C51.238 31.5142 51.94 33.2062 53.362 34.6102C54.766 36.0322 56.458 36.7342 58.456 36.7342C60.454 36.7342 62.146 36.0502 63.55 34.7002C64.936 33.3502 65.656 31.6582 65.71 29.5882V28.7602H61.318V30.3262H63.964ZM71.6479 36.6622C73.2319 36.6622 74.2399 36.2302 75.3739 35.1682L74.4379 34.1602C73.5199 34.9342 72.7999 35.2042 71.6299 35.2042C70.7119 35.2042 69.9559 34.9162 69.3619 34.3582C68.7679 33.8002 68.4439 33.1162 68.4259 32.2702H76.0579C76.0579 32.0002 76.0579 31.8022 76.0399 31.6762C75.9859 30.4522 75.5179 29.4262 74.6539 28.6162C73.7899 27.8062 72.6919 27.4102 71.3779 27.4102C70.0459 27.4102 68.9659 27.8422 68.1199 28.7242C67.2739 29.6062 66.8599 30.6862 66.8599 31.9642C66.8599 33.2602 67.2919 34.3582 68.1739 35.2762C69.0559 36.1942 70.2079 36.6622 71.6479 36.6622ZM68.5519 30.9742C68.8939 29.6782 69.7939 28.8142 71.3779 28.8142C72.9439 28.8142 74.0239 29.6962 74.3299 30.9742H68.5519ZM78.2265 29.0122V36.5002H79.8465V29.0122H81.3405V27.5362H79.8465V23.2162L78.2265 24.1882V27.5362H76.7505V29.0122H78.2265ZM95.299 35.2942C96.181 34.3762 96.631 33.2782 96.631 32.0002C96.631 30.7222 96.181 29.6242 95.281 28.7062C94.363 27.8062 93.229 27.3562 91.879 27.3562C90.529 27.3562 89.395 27.8062 88.495 28.7062C87.595 29.6242 87.145 30.7222 87.145 32.0002C87.145 33.2782 87.595 34.3762 88.477 35.2942C89.359 36.2122 90.493 36.6622 91.879 36.6622C93.265 36.6622 94.399 36.2122 95.299 35.2942ZM88.783 31.9822C88.783 31.1182 89.071 30.3982 89.665 29.8042C90.259 29.2282 90.997 28.9402 91.879 28.9402C92.761 28.9402 93.517 29.2282 94.111 29.8042C94.705 30.3982 94.993 31.1182 94.993 31.9822C94.993 32.8462 94.705 33.5842 94.111 34.1782C93.517 34.7902 92.779 35.0962 91.897 35.0962C91.015 35.0962 90.277 34.7902 89.683 34.1782C89.089 33.5842 88.783 32.8462 88.783 31.9822ZM106.548 36.5002V31.2262C106.548 30.0562 106.17 29.1382 105.396 28.4362C104.622 27.7522 103.704 27.4102 102.624 27.4102C101.544 27.4102 100.68 27.7522 100.032 28.4542V27.5362H98.3943V36.5002H100.032V30.3262C100.59 29.4442 101.382 28.9942 102.408 28.9942C103.092 28.9942 103.686 29.2102 104.172 29.6602C104.658 30.1102 104.91 30.7042 104.91 31.4602V36.5002H106.548ZM114.422 36.5002L115.358 34.1962H122.558L123.494 36.5002H125.33L119.714 22.5862H118.31L112.622 36.5002H114.422ZM121.946 32.6662H115.988L118.994 25.3402L121.946 32.6662ZM134.779 36.5002V31.2262C134.779 30.0562 134.401 29.1382 133.627 28.4362C132.853 27.7522 131.935 27.4102 130.855 27.4102C129.775 27.4102 128.911 27.7522 128.263 28.4542V27.5362H126.625V36.5002H128.263V30.3262C128.821 29.4442 129.613 28.9942 130.639 28.9942C131.323 28.9942 131.917 29.2102 132.403 29.6602C132.889 30.1102 133.141 30.7042 133.141 31.4602V36.5002H134.779ZM145.473 36.5002V22.4602H143.835V28.5802C143.025 27.8062 142.323 27.4102 141.711 27.4102C141.081 27.4102 140.775 27.3922 140.775 27.3922C139.551 27.3922 138.507 27.8602 137.625 28.7602C136.743 29.6782 136.293 30.7582 136.293 32.0362C136.293 33.3142 136.743 34.3942 137.625 35.2942C138.507 36.1942 139.623 36.6442 140.955 36.6442C142.053 36.6442 143.007 36.2842 143.835 35.5462V36.5002H145.473ZM141.045 35.0962C140.163 35.0962 139.425 34.7902 138.831 34.1962C138.237 33.6022 137.931 32.8822 137.931 32.0182C137.931 31.1542 138.219 30.4342 138.813 29.8402C139.407 29.2462 140.145 28.9582 141.027 28.9582C142.251 28.9582 143.331 29.6962 143.835 30.8302V33.3322C143.331 34.3942 142.269 35.0962 141.045 35.0962ZM149.603 36.5002V30.2542C149.765 29.5342 150.395 28.9762 151.259 28.9762C152.123 28.9762 152.789 29.6602 152.789 30.6142H154.283V30.3262C154.283 29.5162 154.013 28.8322 153.491 28.2742C152.951 27.7342 152.285 27.4642 151.511 27.4642C150.737 27.4642 150.089 27.7162 149.603 28.2382V27.5362H147.965V36.5002H149.603ZM163.133 35.2942C164.015 34.3762 164.465 33.2782 164.465 32.0002C164.465 30.7222 164.015 29.6242 163.115 28.7062C162.197 27.8062 161.063 27.3562 159.713 27.3562C158.363 27.3562 157.229 27.8062 156.329 28.7062C155.429 29.6242 154.979 30.7222 154.979 32.0002C154.979 33.2782 155.429 34.3762 156.311 35.2942C157.193 36.2122 158.327 36.6622 159.713 36.6622C161.099 36.6622 162.233 36.2122 163.133 35.2942ZM156.617 31.9822C156.617 31.1182 156.905 30.3982 157.499 29.8042C158.093 29.2282 158.831 28.9402 159.713 28.9402C160.595 28.9402 161.351 29.2282 161.945 29.8042C162.539 30.3982 162.827 31.1182 162.827 31.9822C162.827 32.8462 162.539 33.5842 161.945 34.1782C161.351 34.7902 160.613 35.0962 159.731 35.0962C158.849 35.0962 158.111 34.7902 157.517 34.1782C156.923 33.5842 156.617 32.8462 156.617 31.9822ZM167.866 36.5002V27.5362H166.228V36.5002H167.866ZM168.082 24.0802C168.082 23.5222 167.614 23.0722 167.056 23.0722C166.48 23.0722 166.048 23.5222 166.048 24.0982C166.048 24.6742 166.48 25.1242 167.056 25.1242C167.614 25.1242 168.082 24.6562 168.082 24.0802ZM178.819 36.5002V22.4602H177.181V28.5802C176.371 27.8062 175.669 27.4102 175.057 27.4102C174.427 27.4102 174.121 27.3922 174.121 27.3922C172.897 27.3922 171.853 27.8602 170.971 28.7602C170.089 29.6782 169.639 30.7582 169.639 32.0362C169.639 33.3142 170.089 34.3942 170.971 35.2942C171.853 36.1942 172.969 36.6442 174.301 36.6442C175.399 36.6442 176.353 36.2842 177.181 35.5462V36.5002H178.819ZM174.391 35.0962C173.509 35.0962 172.771 34.7902 172.177 34.1962C171.583 33.6022 171.277 32.8822 171.277 32.0182C171.277 31.1542 171.565 30.4342 172.159 29.8402C172.753 29.2462 173.491 28.9582 174.373 28.9582C175.597 28.9582 176.677 29.6962 177.181 30.8302V33.3322C176.677 34.3942 175.615 35.0962 174.391 35.0962Z" fill="#042F24"/>
<rect x="1" y="0.5" width="195" height="61.0003" rx="7.5" stroke="#042F24" stroke-opacity="0.4"/>
<defs>
<linearGradient id="paint0_linear_993_833" x1="28.7918" y1="19.1444" x2="8.1315" y2="24.5978" gradientUnits="userSpaceOnUse">
<stop stop-color="#00A0FF"/>
<stop offset="0.00657" stop-color="#00A1FF"/>
<stop offset="0.2601" stop-color="#00BEFF"/>
<stop offset="0.5122" stop-color="#00D2FF"/>
<stop offset="0.7604" stop-color="#00DFFF"/>
<stop offset="1" stop-color="#00E3FF"/>
</linearGradient>
<linearGradient id="paint1_linear_993_833" x1="41.3058" y1="30.9981" x2="16.146" y2="30.9981" gradientUnits="userSpaceOnUse">
<stop stop-color="#FFE000"/>
<stop offset="0.4087" stop-color="#FFBD00"/>
<stop offset="0.7754" stop-color="#FFA500"/>
<stop offset="1" stop-color="#FF9C00"/>
</linearGradient>
<linearGradient id="paint2_linear_993_833" x1="31.9399" y1="33.4099" x2="15.1429" y2="61.4158" gradientUnits="userSpaceOnUse">
<stop stop-color="#FF3A44"/>
<stop offset="1" stop-color="#C31162"/>
</linearGradient>
<linearGradient id="paint3_linear_993_833" x1="13.7105" y1="10.1937" x2="21.2044" y2="22.7016" gradientUnits="userSpaceOnUse">
<stop stop-color="#32A071"/>
<stop offset="0.0685" stop-color="#2DA771"/>
<stop offset="0.4762" stop-color="#15CF74"/>
<stop offset="0.8009" stop-color="#06E775"/>
<stop offset="1" stop-color="#00F076"/>
</linearGradient>
</defs>
</svg>
