<svg width="186" height="62" viewBox="0 0 186 62" fill="none" xmlns="http://www.w3.org/2000/svg">
<path d="M36.5454 31.9542C36.56 30.8044 36.8603 29.6769 37.4185 28.6768C37.9766 27.6767 38.7745 26.8364 39.7378 26.2341C39.1258 25.3453 38.3185 24.6138 37.3799 24.0978C36.4414 23.5818 35.3975 23.2955 34.3311 23.2615C32.0563 23.0187 29.8509 24.6458 28.6917 24.6458C27.5101 24.6458 25.7253 23.2856 23.8034 23.3258C22.5603 23.3667 21.3487 23.7343 20.2869 24.3929C19.225 25.0515 18.3489 25.9786 17.7441 27.0839C15.1242 31.6969 17.0784 38.4765 19.5881 42.2053C20.8437 44.0312 22.3112 46.0708 24.2314 45.9984C26.1104 45.9192 26.8122 44.7799 29.0803 44.7799C31.3273 44.7799 31.9857 45.9984 33.9449 45.9524C35.9611 45.9192 37.2315 44.1184 38.4431 42.2753C39.3452 40.9743 40.0394 39.5363 40.5 38.0148C39.3286 37.511 38.329 36.6676 37.6257 35.5898C36.9225 34.5121 36.5468 33.2477 36.5454 31.9542V31.9542Z" fill="black"/>
<path d="M32.8448 20.8089C33.9441 19.4668 34.4857 17.7417 34.3546 16C32.675 16.1794 31.1236 16.9957 30.0094 18.2864C29.4646 18.9169 29.0474 19.6504 28.7815 20.445C28.5157 21.2396 28.4064 22.0797 28.46 22.9173C29.3001 22.9261 30.1312 22.7409 30.8907 22.3757C31.6502 22.0105 32.3184 21.4748 32.8448 20.8089Z" fill="black"/>
<path d="M63.964 30.3262C63.73 31.7482 63.118 32.9002 62.11 33.7642C61.084 34.6462 59.842 35.0782 58.366 35.0782C56.89 35.0782 55.63 34.5382 54.568 33.4402C53.506 32.3602 52.984 31.0462 52.984 29.5162C52.984 27.9862 53.506 26.6722 54.568 25.5922C55.63 24.5122 56.962 23.9722 58.564 23.9722C60.166 23.9722 61.534 24.6022 62.668 25.8622L63.892 24.6922C62.434 23.1082 60.67 22.3162 58.582 22.3162C56.494 22.3162 54.748 23.0182 53.344 24.4222C51.94 25.8262 51.238 27.5182 51.238 29.5162C51.238 31.5142 51.94 33.2062 53.362 34.6102C54.766 36.0322 56.458 36.7342 58.456 36.7342C60.454 36.7342 62.146 36.0502 63.55 34.7002C64.936 33.3502 65.656 31.6582 65.71 29.5882V28.7602H61.318V30.3262H63.964ZM71.6479 36.6622C73.2319 36.6622 74.2399 36.2302 75.3739 35.1682L74.4379 34.1602C73.5199 34.9342 72.7999 35.2042 71.6299 35.2042C70.7119 35.2042 69.9559 34.9162 69.3619 34.3582C68.7679 33.8002 68.4439 33.1162 68.4259 32.2702H76.0579C76.0579 32.0002 76.0579 31.8022 76.0399 31.6762C75.9859 30.4522 75.5179 29.4262 74.6539 28.6162C73.7899 27.8062 72.6919 27.4102 71.3779 27.4102C70.0459 27.4102 68.9659 27.8422 68.1199 28.7242C67.2739 29.6062 66.8599 30.6862 66.8599 31.9642C66.8599 33.2602 67.2919 34.3582 68.1739 35.2762C69.0559 36.1942 70.2079 36.6622 71.6479 36.6622ZM68.5519 30.9742C68.8939 29.6782 69.7939 28.8142 71.3779 28.8142C72.9439 28.8142 74.0239 29.6962 74.3299 30.9742H68.5519ZM78.2265 29.0122V36.5002H79.8465V29.0122H81.3405V27.5362H79.8465V23.2162L78.2265 24.1882V27.5362H76.7505V29.0122H78.2265ZM95.299 35.2942C96.181 34.3762 96.631 33.2782 96.631 32.0002C96.631 30.7222 96.181 29.6242 95.281 28.7062C94.363 27.8062 93.229 27.3562 91.879 27.3562C90.529 27.3562 89.395 27.8062 88.495 28.7062C87.595 29.6242 87.145 30.7222 87.145 32.0002C87.145 33.2782 87.595 34.3762 88.477 35.2942C89.359 36.2122 90.493 36.6622 91.879 36.6622C93.265 36.6622 94.399 36.2122 95.299 35.2942ZM88.783 31.9822C88.783 31.1182 89.071 30.3982 89.665 29.8042C90.259 29.2282 90.997 28.9402 91.879 28.9402C92.761 28.9402 93.517 29.2282 94.111 29.8042C94.705 30.3982 94.993 31.1182 94.993 31.9822C94.993 32.8462 94.705 33.5842 94.111 34.1782C93.517 34.7902 92.779 35.0962 91.897 35.0962C91.015 35.0962 90.277 34.7902 89.683 34.1782C89.089 33.5842 88.783 32.8462 88.783 31.9822ZM106.548 36.5002V31.2262C106.548 30.0562 106.17 29.1382 105.396 28.4362C104.622 27.7522 103.704 27.4102 102.624 27.4102C101.544 27.4102 100.68 27.7522 100.032 28.4542V27.5362H98.3943V36.5002H100.032V30.3262C100.59 29.4442 101.382 28.9942 102.408 28.9942C103.092 28.9942 103.686 29.2102 104.172 29.6602C104.658 30.1102 104.91 30.7042 104.91 31.4602V36.5002H106.548ZM115.448 36.5002V27.5362H113.81V36.5002H115.448ZM115.664 24.0802C115.664 23.5222 115.196 23.0722 114.638 23.0722C114.062 23.0722 113.63 23.5222 113.63 24.0982C113.63 24.6742 114.062 25.1242 114.638 25.1242C115.196 25.1242 115.664 24.6562 115.664 24.0802ZM120.047 36.5002V31.6042H123.143C124.421 31.6042 125.483 31.1722 126.365 30.3082C127.247 29.4622 127.679 28.3822 127.679 27.1042C127.679 25.8262 127.247 24.7462 126.383 23.8822C125.519 23.0182 124.439 22.5862 123.161 22.5862H118.319V36.5002H120.047ZM123.035 24.2062C123.845 24.2062 124.529 24.4762 125.087 25.0342C125.645 25.5922 125.915 26.2942 125.915 27.1402C125.915 27.9862 125.645 28.6702 125.105 29.1922C124.565 29.7142 123.881 29.9842 123.071 29.9842H120.047V24.2062H123.035ZM137.381 36.5002V31.2262C137.381 30.0562 137.003 29.1382 136.229 28.4362C135.455 27.7522 134.537 27.4102 133.457 27.4102C132.377 27.4102 131.513 27.7522 130.865 28.4542V22.4602H129.227V36.5002H130.865V30.3262C131.423 29.4442 132.215 28.9942 133.241 28.9942C133.925 28.9942 134.519 29.2102 135.005 29.6602C135.491 30.1102 135.743 30.7042 135.743 31.4602V36.5002H137.381ZM147.067 35.2942C147.949 34.3762 148.399 33.2782 148.399 32.0002C148.399 30.7222 147.949 29.6242 147.049 28.7062C146.131 27.8062 144.997 27.3562 143.647 27.3562C142.297 27.3562 141.163 27.8062 140.263 28.7062C139.363 29.6242 138.913 30.7222 138.913 32.0002C138.913 33.2782 139.363 34.3762 140.245 35.2942C141.127 36.2122 142.261 36.6622 143.647 36.6622C145.033 36.6622 146.167 36.2122 147.067 35.2942ZM140.551 31.9822C140.551 31.1182 140.839 30.3982 141.433 29.8042C142.027 29.2282 142.765 28.9402 143.647 28.9402C144.529 28.9402 145.285 29.2282 145.879 29.8042C146.473 30.3982 146.761 31.1182 146.761 31.9822C146.761 32.8462 146.473 33.5842 145.879 34.1782C145.285 34.7902 144.547 35.0962 143.665 35.0962C142.783 35.0962 142.045 34.7902 141.451 34.1782C140.857 33.5842 140.551 32.8462 140.551 31.9822ZM158.316 36.5002V31.2262C158.316 30.0562 157.938 29.1382 157.164 28.4362C156.39 27.7522 155.472 27.4102 154.392 27.4102C153.312 27.4102 152.448 27.7522 151.8 28.4542V27.5362H150.162V36.5002H151.8V30.3262C152.358 29.4442 153.15 28.9942 154.176 28.9942C154.86 28.9942 155.454 29.2102 155.94 29.6602C156.426 30.1102 156.678 30.7042 156.678 31.4602V36.5002H158.316ZM164.636 36.6622C166.22 36.6622 167.228 36.2302 168.362 35.1682L167.426 34.1602C166.508 34.9342 165.788 35.2042 164.618 35.2042C163.7 35.2042 162.944 34.9162 162.35 34.3582C161.756 33.8002 161.432 33.1162 161.414 32.2702H169.046C169.046 32.0002 169.046 31.8022 169.028 31.6762C168.974 30.4522 168.506 29.4262 167.642 28.6162C166.778 27.8062 165.68 27.4102 164.366 27.4102C163.034 27.4102 161.954 27.8422 161.108 28.7242C160.262 29.6062 159.848 30.6862 159.848 31.9642C159.848 33.2602 160.28 34.3582 161.162 35.2762C162.044 36.1942 163.196 36.6622 164.636 36.6622ZM161.54 30.9742C161.882 29.6782 162.782 28.8142 164.366 28.8142C165.932 28.8142 167.012 29.6962 167.318 30.9742H161.54Z" fill="#042F24"/>
<rect x="1" y="0.5" width="184" height="61.0003" rx="7.5" stroke="#042F24" stroke-opacity="0.4"/>
</svg>
