<svg width="390" height="83" viewBox="0 0 390 83" fill="none" xmlns="http://www.w3.org/2000/svg">
<path d="M71.1513 80.3506C71.4616 80.3468 71.8942 80.318 72.1762 80.35C86.326 81.7707 100.843 81.9384 115.407 81.915C122.177 81.9036 128.909 81.8097 135.642 81.7158C136.168 81.6974 136.695 81.6789 137.333 81.5166C136.177 81.4238 135.049 81.2946 133.893 81.2017C109.495 79.0021 86.4044 75.6571 65.3648 70.3485C64.3496 70.0754 63.1555 69.9001 61.9333 69.76C48.2446 67.8818 35.1107 65.5567 23.4443 62.1433C17.2115 60.2932 11.7029 58.1723 7.46382 55.6073C-0.412704 50.6256 -1.59468 45.4669 3.85221 40.0845C7.16359 36.7736 12.3741 33.9155 18.4118 31.3085C22.5874 29.5093 27.2424 27.8826 32.1231 26.3603C32.9412 26.1006 33.8816 25.8156 34.4458 25.4876C43.3434 20.1462 55.2207 15.9696 68.9877 12.5192C85.0396 8.50569 102.586 5.72265 120.94 3.73836C149.338 0.70387 178.231 -0.350675 207.585 0.0994582C224.782 0.377019 241.866 1.19108 258.591 2.59229C281.663 4.52245 303.786 7.40375 324.563 11.7404C340.225 15.0217 354.542 18.9735 366.528 24.0716C374.077 27.2499 380.223 30.7782 384.452 34.7938C388.954 39.115 390.672 43.5897 388.677 48.2284C387.622 50.6196 385.628 52.9034 382.533 55.0222C378.583 57.7109 374.162 60.3454 368.689 62.6243C360.658 65.9449 351.104 68.4643 340.703 70.494C327.153 73.1447 312.851 74.9253 298.07 76.1402C276.933 77.8849 255.41 79.0754 233.905 80.1112C210.363 81.2669 186.761 82.1018 163.133 82.5811C143.66 82.985 124.235 83.1989 104.82 82.7462C94.2424 82.5187 83.7026 81.9813 73.577 80.7848C72.7308 80.6882 71.9786 80.6024 71.1324 80.5058C71.0667 80.4586 71.1232 80.3869 71.1513 80.3506ZM118.262 71.6052C124.298 72.1383 134.556 73.0356 144.964 73.8716C148.526 74.1609 152.269 74.3531 155.908 74.4161C167.162 74.5637 178.332 74.4275 189.521 74.136C213.385 73.4878 236.937 72.0585 259.862 69.3404C276.138 67.3937 291.719 64.8961 306.098 61.3192C315.266 59.0311 323.72 56.3473 330.351 52.9837C335.966 50.1327 339.88 46.9689 340.963 43.3644C342.064 39.6046 339.922 36.063 335.345 32.7533C330.796 29.4077 324.489 26.6068 317.09 24.1522C304.588 19.9761 290.165 17.0721 274.738 14.7988C259.028 12.4933 242.828 11.0738 226.205 10.1946C204.252 9.05945 182.288 8.98285 160.314 9.96477C135.802 11.0491 111.975 13.3499 89.4258 17.2882C76.6185 19.5139 64.6574 22.2287 54.0685 25.8068C44.4387 28.9451 36.7457 32.6186 32.512 37.2372C28.7678 41.3618 28.5962 45.5027 32.5524 49.6045C35.4938 52.6488 40.3534 55.2056 46.1251 57.5138C54.2659 60.7205 63.902 63.1953 74.281 65.2446C86.9635 67.7537 100.276 69.5891 118.262 71.6052ZM252.138 10.5677C252.081 10.6397 252.146 10.6865 252.089 10.7585C253.876 10.9626 255.663 11.1668 257.448 11.3709C268.6 12.5667 279.402 14.0759 289.743 16.0426C301.627 18.2641 312.682 21.0189 322.365 24.4803C329.876 27.1832 336.202 30.2217 340.309 33.8699C346.352 39.2311 346.086 44.5386 339.483 49.8281C335.211 53.1862 329.127 55.9841 321.962 58.4617C312.708 61.6428 302.251 64.1372 291.173 66.2467C276.391 69.0315 260.924 70.9923 245.014 72.471C225.804 74.2402 206.284 75.2277 186.597 75.6467C185.665 75.6581 184.706 75.7054 183.775 75.7168C184.349 75.8997 184.818 75.9534 185.439 75.9458C195.302 76.1706 205.203 76.4778 215.056 76.5832C239.051 76.8133 262.895 76.3199 286.552 74.6278C303.91 73.3928 320.75 71.5107 336.633 68.4979C346.61 66.6164 355.901 64.3027 364.092 61.4316C370.74 59.0908 375.33 56.2403 377.993 52.9729C381.596 48.6355 380.856 44.3513 376.767 40.1561C372.944 36.1472 366.618 32.7164 358.984 29.6462C346.35 24.5916 331.214 20.8996 314.649 17.9861C301.327 15.6395 287.638 13.7612 273.405 12.4485C266.362 11.7616 259.235 11.1826 252.138 10.5677ZM385.217 46.1058C385.312 46.1167 385.434 46.0911 385.434 46.0911C385.453 45.9364 385.565 45.7926 385.557 45.6737C386.159 42.6815 385.089 39.7333 382.722 36.8724C378.888 32.3524 372.524 28.4462 364.328 24.9191C355.134 20.9642 344.474 17.7051 332.731 14.9111C308.806 9.23333 282.782 5.70994 255.431 3.48713C241.178 2.32928 226.868 1.63589 212.276 1.30274C183.158 0.683241 154.404 1.55767 126.149 4.41209C107.136 6.32114 89.0635 9.12253 72.3627 13.1796C62 15.6847 52.6338 18.6176 44.6867 22.2229C44.2354 22.4068 43.8498 22.6374 43.3701 22.8573C43.9625 22.8858 44.3292 22.81 44.696 22.7342C60.2307 18.8578 76.9215 15.8592 94.5426 13.6342C146.513 7.05323 199.524 5.81113 253.275 9.24559C272.879 10.5046 291.861 12.5561 310.138 15.5081C324.23 17.7859 337.496 20.5969 349.547 24.172C358.864 26.9243 367.061 30.0589 373.603 33.8677C379.721 37.4321 383.875 41.282 384.805 45.5879C385.039 45.811 385.143 45.9402 385.217 46.1058ZM28.1253 29.6319C26.978 30.0503 26.1598 30.3101 25.4075 30.6165C17.5078 33.6387 10.7176 36.9441 6.81348 41.0117C2.90934 45.0787 3.10451 49.1436 7.98224 53.1157C11.3657 55.8571 16.3853 58.0789 22.317 60.0522C30.1009 62.6688 39.0132 64.629 48.3958 66.2505C49.9377 66.5056 51.3855 66.7494 52.9274 67.004C23.419 56.6849 13.2992 44.5 28.1253 29.6319ZM80.6147 71.9342C80.5864 71.9705 80.436 72.0313 80.4077 72.0677C80.7555 72.1464 81.1692 72.2724 81.517 72.3516C89.0286 73.877 96.7097 75.1864 104.598 76.3628C118.644 78.4386 133.123 80.0932 147.902 81.2327C149.434 81.3689 151.024 81.4325 152.603 81.3776C177.182 80.7327 201.703 79.767 226.084 78.589C226.61 78.5711 227.193 78.4804 227.72 78.462C226.714 78.3078 225.718 78.2725 224.693 78.273C206.208 78.2019 187.911 77.759 169.577 76.8416C159.723 76.3432 149.898 75.809 139.942 75.574C123.205 75.2315 106.705 74.3271 90.4396 72.8608C87.243 72.4955 83.8959 72.1915 80.6147 71.9342ZM79.3275 17.6256C79.3558 17.5896 79.29 17.5428 79.3181 17.5068C77.0802 17.879 74.8422 18.2512 72.6983 18.6341C60.4459 20.8055 48.6915 23.387 37.849 26.5044C36.7863 26.8147 35.639 27.2331 34.9901 27.6691C30.447 30.7215 27.1921 33.96 25.7893 37.45C22.7296 44.7536 26.4587 51.4985 36.8544 57.7104C43.6031 61.7785 52.5524 64.9987 62.6208 67.8373C65.5445 68.6814 68.7879 69.2481 72.2666 69.646C86.8675 71.2751 101.835 72.4363 116.898 73.2153C119.173 73.3184 121.448 73.4216 123.752 73.4884C100.877 70.9136 97.4269 70.4804 82.1682 67.9909C72.1931 66.3406 62.8107 64.3266 54.1619 61.7682C45.3533 59.1527 37.6921 56.1182 32.5135 52.2688C27.2032 48.3261 25.4472 44.1613 27.5557 39.7713C29.2595 36.1591 33.323 32.934 39.0225 29.9746C46.4524 26.1139 55.8751 23.109 66.2943 20.5319C70.6575 19.5391 74.9642 18.6184 79.3275 17.6256Z" fill="#10AC84"/>
</svg>
