<svg width="24" height="24" viewBox="0 0 24 24" fill="none" xmlns="http://www.w3.org/2000/svg">
<g clip-path="url(#clip0_36_1675)">
<path d="M23.8208 11.181C22.9428 9.261 19.4998 3 11.9998 3C4.49981 3 1.05681 9.261 0.17881 11.181C0.0609485 11.4383 -6.10352e-05 11.718 -6.10352e-05 12.001C-6.10352e-05 12.284 0.0609485 12.5637 0.17881 12.821C1.05681 14.739 4.49981 21 11.9998 21C19.4998 21 22.9428 14.739 23.8208 12.819C23.9384 12.562 23.9993 12.2827 23.9993 12C23.9993 11.7173 23.9384 11.438 23.8208 11.181ZM11.9998 19C5.69281 19 2.74981 13.634 1.99981 12.011C2.74981 10.366 5.69281 5 11.9998 5C18.2918 5 21.2358 10.343 21.9998 12C21.2358 13.657 18.2918 19 11.9998 19Z" fill="black"/>
<path d="M11.9998 7.00031C11.0109 7.00031 10.0442 7.29355 9.22194 7.84296C8.39969 8.39236 7.75883 9.17326 7.38039 10.0869C7.00195 11.0005 6.90294 12.0059 7.09586 12.9758C7.28879 13.9457 7.76499 14.8366 8.46425 15.5358C9.16352 16.2351 10.0544 16.7113 11.0243 16.9042C11.9942 17.0972 12.9996 16.9981 13.9132 16.6197C14.8268 16.2413 15.6077 15.6004 16.1571 14.7782C16.7065 13.9559 16.9998 12.9892 16.9998 12.0003C16.9982 10.6747 16.4709 9.40386 15.5336 8.46653C14.5962 7.52919 13.3254 7.00189 11.9998 7.00031ZM11.9998 15.0003C11.4064 15.0003 10.8264 14.8244 10.3331 14.4947C9.83973 14.1651 9.45521 13.6965 9.22815 13.1484C9.00109 12.6002 8.94168 11.997 9.05743 11.415C9.17319 10.8331 9.45891 10.2985 9.87847 9.87898C10.298 9.45943 10.8326 9.17371 11.4145 9.05795C11.9965 8.94219 12.5997 9.0016 13.1478 9.22867C13.696 9.45573 14.1646 9.84025 14.4942 10.3336C14.8238 10.8269 14.9998 11.407 14.9998 12.0003C14.9998 12.796 14.6837 13.559 14.1211 14.1216C13.5585 14.6842 12.7954 15.0003 11.9998 15.0003Z" fill="black"/>
</g>
<defs>
<clipPath id="clip0_36_1675">
<rect width="24" height="24" fill="white"/>
</clipPath>
</defs>
</svg>
