<svg width="60" height="60" viewBox="0 0 60 60" fill="none" xmlns="http://www.w3.org/2000/svg">
<g clip-path="url(#clip0_950_954)">
<rect width="60" height="60" rx="16" fill="white"/>
<path fill-rule="evenodd" clip-rule="evenodd" d="M100 0H0V100H100V0ZM30.1922 24.7211C27.1746 24.7211 24.729 27.1666 24.729 30.1824C24.729 33.1982 27.1746 35.6436 30.1922 35.6436C33.2098 35.6436 35.6567 33.1982 35.6567 30.1824C35.6567 27.1666 33.2098 24.7211 30.1922 24.7211ZM30.1922 38.5945C25.5434 38.5945 21.775 34.8284 21.775 30.1824C21.775 25.5363 25.5434 21.7702 30.1922 21.7702C34.841 21.7702 38.6094 25.5363 38.6094 30.1824C38.6094 34.8284 34.841 38.5945 30.1922 38.5945ZM37.3066 22.529C37.0906 22.2056 36.9754 21.8255 36.9756 21.4367C36.976 20.9155 37.1834 20.4158 37.5522 20.0474C37.9211 19.6789 38.4211 19.4718 38.9426 19.4716H38.9434C39.3325 19.4717 39.7127 19.5872 40.0361 19.8033C40.3595 20.0195 40.6115 20.3266 40.7603 20.6859C40.909 21.0452 40.9478 21.4404 40.8717 21.8218C40.7957 22.2031 40.6082 22.5533 40.333 22.8281C40.0578 23.1029 39.7072 23.29 39.3256 23.3657C38.944 23.4414 38.5485 23.4023 38.1891 23.2534C37.8298 23.1045 37.5227 22.8524 37.3066 22.529ZM20.5257 42.9537C21.1029 43.1784 21.9716 43.4445 23.5698 43.5172C25.2971 43.5967 25.8147 43.6125 30.1922 43.6125C34.5697 43.6125 35.0888 43.5967 36.8166 43.5172C38.4148 43.4446 39.2837 43.1786 39.8607 42.9537C40.626 42.6559 41.1729 42.3007 41.7462 41.7283C42.3196 41.1558 42.6744 40.6101 42.9724 39.8452C43.1959 39.2683 43.4635 38.4002 43.5363 36.803C43.6157 35.0747 43.6316 34.5574 43.6316 30.1825C43.6316 25.8076 43.6157 25.2903 43.5363 23.5621C43.4636 21.9648 43.1974 21.0964 42.9724 20.5198C42.6744 19.7549 42.3203 19.2084 41.7462 18.6354C41.1721 18.0624 40.626 17.7065 39.8607 17.41C39.282 17.1872 38.4148 16.9192 36.8166 16.8465C35.0873 16.7684 34.5677 16.7512 30.1922 16.7512C25.8167 16.7512 25.2976 16.767 23.5698 16.8465C21.9716 16.9191 21.1027 17.1851 20.5257 17.41C19.759 17.7065 19.2135 18.0616 18.6402 18.6354C18.0668 19.2092 17.712 19.7549 17.414 20.5198C17.1911 21.0982 16.9229 21.9648 16.8501 23.5621C16.772 25.2903 16.7548 25.8076 16.7548 30.1825C16.7548 34.5574 16.7707 35.0761 16.8501 36.803C16.9228 38.4002 17.189 39.2686 17.414 39.8452C17.7107 40.6101 18.066 41.1553 18.6402 41.7283C19.2143 42.3013 19.7603 42.6559 20.5257 42.9537ZM19.4552 14.6601C20.4965 14.2552 21.689 13.9786 23.434 13.8992C25.1827 13.8185 25.7419 13.8 30.1935 13.8C34.6451 13.8 35.2039 13.8198 36.9517 13.8992C38.6954 13.9773 39.8872 14.2552 40.9305 14.6601C42.0071 15.0784 42.9221 15.638 43.833 16.5497C44.7439 17.4615 45.3041 18.3746 45.7238 19.4518C46.129 20.4925 46.4057 21.6841 46.4851 23.4283C46.5646 25.175 46.5831 25.7334 46.5831 30.1824C46.5831 34.6313 46.5646 35.1884 46.4851 36.9365C46.407 38.6805 46.129 39.8716 45.7238 40.913C45.3041 41.9901 44.7453 42.9047 43.833 43.815C42.9207 44.7253 42.0071 45.2852 40.9292 45.7046C39.8872 46.1096 38.6956 46.3861 36.9504 46.4655C35.2026 46.5463 34.6438 46.5648 30.1922 46.5648C25.7406 46.5648 25.1827 46.545 23.434 46.4655C21.689 46.3861 20.4985 46.1096 19.4552 45.7046C18.3767 45.2852 17.4636 44.7249 16.5514 43.815C15.6392 42.9051 15.0791 41.9901 14.6607 40.913C14.2554 39.8716 13.9787 38.6806 13.8993 36.9365C13.8185 35.1897 13.8 34.6313 13.8 30.1824C13.8 25.7334 13.8185 25.175 13.8993 23.4283C13.9787 21.6842 14.2554 20.4932 14.6607 19.4518C15.0791 18.374 15.6391 17.4601 16.5514 16.5497C17.4637 15.6394 18.3767 15.0784 19.4552 14.6601Z" fill="url(#paint0_linear_950_954)"/>
</g>
<defs>
<linearGradient id="paint0_linear_950_954" x1="98.078" y1="100" x2="-1.922" y2="-2.69172e-06" gradientUnits="userSpaceOnUse">
<stop stop-color="#FBE18A"/>
<stop offset="0.21" stop-color="#FCBB45"/>
<stop offset="0.38" stop-color="#F75274"/>
<stop offset="0.52" stop-color="#D53692"/>
<stop offset="0.74" stop-color="#8F39CE"/>
<stop offset="1" stop-color="#5B4FE9"/>
</linearGradient>
<clipPath id="clip0_950_954">
<rect width="60" height="60" rx="16" fill="white"/>
</clipPath>
</defs>
</svg>
