<svg width="24" height="24" viewBox="0 0 24 24" fill="none" xmlns="http://www.w3.org/2000/svg">
<path d="M6.33814 14.8445C6.45534 13.8741 6.85335 13.3307 7.60337 12.7737C8.67651 12.0194 10.017 12.4461 10.017 12.4461V9.91474C10.3429 9.90641 10.6689 9.92573 10.9913 9.97247V13.2301C10.9913 13.2301 9.65117 12.8034 8.57803 13.5581C7.82841 14.1147 7.4296 14.6584 7.3128 15.6289C7.30914 16.1558 7.40803 16.8446 7.86341 17.4402C7.75082 17.3825 7.63606 17.3167 7.51913 17.2429C6.51598 16.5692 6.33326 15.5586 6.33814 14.8445ZM16.5263 5.23424C15.7881 4.42529 15.5089 3.60854 15.408 3.03479H16.3366C16.3366 3.03479 16.1515 4.53918 17.501 6.01861L17.5197 6.0385C17.156 5.80972 16.8224 5.53968 16.5263 5.23424ZM21 7.52768V10.7198C21 10.7198 19.8149 10.6734 18.9379 10.4503C17.7134 10.1382 16.9263 9.65965 16.9263 9.65965C16.9263 9.65965 16.3826 9.31837 16.3387 9.29457V15.8863C16.3387 16.2533 16.2382 17.1699 15.9317 17.9344C15.5317 18.9345 14.9143 19.5909 14.8008 19.7251C14.8008 19.7251 14.05 20.6124 12.7253 21.21C11.5313 21.749 10.483 21.7354 10.1696 21.749C10.1696 21.749 8.35746 21.8208 6.72678 20.761C6.37416 20.5275 6.045 20.2629 5.74358 19.9708L5.75172 19.9767C7.3828 21.0364 9.19457 20.9646 9.19457 20.9646C9.50833 20.951 10.5566 20.9646 11.7503 20.4256C13.0737 19.828 13.8257 18.9407 13.8257 18.9407C13.938 18.8065 14.5582 18.1501 14.9567 17.1496C15.2623 16.3855 15.3636 15.4685 15.3636 15.1015V8.51059C15.4076 8.53477 15.9509 8.87606 15.9509 8.87606C15.9509 8.87606 16.7383 9.35503 17.9628 9.66667C18.8402 9.88978 20.0249 9.93619 20.0249 9.93619V7.43485C20.4302 7.52573 20.7757 7.55031 21 7.52768Z" fill="#EE1D52"/>
<path d="M20.0253 7.43485V9.93541C20.0253 9.93541 18.8407 9.889 17.9633 9.66589C16.7387 9.35386 15.9513 8.87528 15.9513 8.87528C15.9513 8.87528 15.408 8.53399 15.364 8.50981V15.1023C15.364 15.4693 15.2635 16.3863 14.9571 17.1504C14.557 18.1509 13.9397 18.8073 13.8261 18.9415C13.8261 18.9415 13.0749 19.8288 11.7507 20.4264C10.5571 20.9654 9.50874 20.9518 9.19498 20.9654C9.19498 20.9654 7.38321 21.0372 5.75213 19.9774L5.74399 19.9716C5.57178 19.8048 5.40968 19.6288 5.25849 19.4442C4.73799 18.8096 4.41894 18.0592 4.33877 17.8451C4.33863 17.8442 4.33863 17.8433 4.33877 17.8423C4.20976 17.4702 3.93873 16.5767 3.97576 15.7112C4.04128 14.1841 4.57847 13.2469 4.72049 13.0121C5.09664 12.3718 5.58587 11.7989 6.16641 11.3189C6.6787 10.9047 7.25936 10.5752 7.88458 10.3438C8.56046 10.0721 9.28421 9.92649 10.017 9.91474V12.4461C10.017 12.4461 8.67652 12.021 7.60378 12.7737C6.85376 13.3307 6.45576 13.8741 6.33855 14.8445C6.33367 15.5586 6.51639 16.5692 7.51873 17.2432C7.63566 17.3173 7.75042 17.3831 7.86301 17.4406C8.03812 17.6682 8.25125 17.8666 8.49379 18.0276C9.47293 18.6474 10.2934 18.6907 11.3425 18.2882C12.042 18.019 12.5686 17.4125 12.8128 16.7405C12.9662 16.3208 12.9642 15.8984 12.9642 15.4615V3.03479H15.4059C15.5069 3.60854 15.786 4.42529 16.5243 5.23424C16.8204 5.53968 17.1539 5.80972 17.5176 6.0385C17.6251 6.14967 18.1745 6.69923 18.8797 7.03662C19.2444 7.21102 19.6288 7.34464 20.0253 7.43485V7.43485Z" fill="black"/>
<path d="M3.36694 17.0677V17.0697L3.42753 17.2339C3.42057 17.2148 3.39806 17.1567 3.36694 17.0677Z" fill="#69C9D0"/>
<path d="M7.88461 10.3437C7.25939 10.5751 6.67873 10.9047 6.16644 11.3188C5.58572 11.7999 5.09661 12.374 4.72094 13.0155C4.57891 13.2495 4.04172 14.1876 3.9762 15.7146C3.93917 16.5801 4.2102 17.4737 4.33921 17.8458C4.33907 17.8467 4.33907 17.8476 4.33921 17.8485C4.4206 18.0607 4.73843 18.8112 5.25893 19.4477C5.41012 19.6322 5.57222 19.8083 5.74443 19.975C5.19268 19.6093 4.7006 19.1671 4.28427 18.6629C3.76825 18.0338 3.45001 17.2912 3.36699 17.072C3.36689 17.0704 3.36689 17.0688 3.36699 17.0673V17.0645C3.23758 16.6928 2.96573 15.7989 3.00358 14.9322C3.0691 13.4052 3.60628 12.4679 3.74831 12.2331C4.12388 11.5915 4.613 11.0174 5.19382 10.5364C5.706 10.1221 6.28669 9.79254 6.91199 9.56131C7.30202 9.40621 7.70833 9.29179 8.1239 9.22002C8.75019 9.11524 9.38984 9.10616 10.0191 9.19311V9.91469C9.2856 9.92619 8.56113 10.0718 7.88461 10.3437Z" fill="#69C9D0"/>
<path d="M15.408 3.03476H12.9662V15.4619C12.9662 15.8987 12.9662 16.32 12.8148 16.7408C12.5682 17.4125 12.0437 18.019 11.3445 18.2881C10.295 18.6922 9.47455 18.6474 8.49582 18.0276C8.25286 17.8673 8.03918 17.6696 7.86341 17.4425C8.69726 17.8688 9.44362 17.8614 10.3682 17.5057C11.067 17.2366 11.5924 16.6301 11.8382 15.958C11.992 15.5383 11.9899 15.1159 11.9899 14.6795V2.25H15.3616C15.3616 2.25 15.3237 2.55891 15.408 3.03476ZM20.0253 6.74328V7.43483C19.6295 7.34447 19.2458 7.21085 18.8818 7.0366C18.1765 6.69921 17.6271 6.14964 17.5197 6.03848C17.6443 6.11693 17.7737 6.1883 17.9071 6.25222C18.7645 6.66255 19.609 6.78502 20.0253 6.74328Z" fill="#69C9D0"/>
</svg>
