<svg width="60" height="60" viewBox="0 0 60 60" fill="none" xmlns="http://www.w3.org/2000/svg">
<g clip-path="url(#clip0_950_946)">
<rect width="60" height="60" rx="16" fill="white"/>
<path fill-rule="evenodd" clip-rule="evenodd" d="M60 0H0V60H60V0ZM41.28 22.1857C42.2566 22.0391 43.2103 21.7672 44.1174 21.3769C44.1891 21.3466 44.2193 21.3274 44.232 21.3355C44.2413 21.3414 44.2413 21.3618 44.2413 21.4029C44.2495 21.5735 44.1936 21.741 44.0847 21.8726C43.4559 22.7551 42.7023 23.5416 41.8475 24.2076C41.825 24.2243 41.7994 24.2413 41.7727 24.2591C41.6524 24.3393 41.5083 24.4353 41.5083 24.5794C41.5083 29.2105 40.3212 33.835 36.9425 37.1876C32.6442 41.4598 26.1999 42.6209 20.473 41.0424C19.3672 40.7261 18.2998 40.2886 17.29 39.7379C16.9509 39.5553 16.6247 39.3661 16.2986 39.1509C16.2269 39.0856 16.1616 39.0139 16.2269 38.9813C16.2921 38.9487 16.3508 38.9421 16.6052 38.9813C18.218 39.1247 19.8428 38.9155 21.3666 38.3681C21.4348 38.3447 21.5096 38.3195 21.5896 38.2925C22.4896 37.9888 24.0581 37.4596 24.4714 36.7049L24.5105 36.6658C24.3687 36.6342 24.2364 36.6218 24.1079 36.6096C24.0236 36.6017 23.9409 36.5939 23.8583 36.581C22.332 36.1374 20.2513 35.3417 19.2925 32.7326C19.2338 32.5826 19.2925 32.4978 19.449 32.5304C20.176 32.629 20.9142 32.6069 21.6341 32.4652C21.3811 32.415 21.1341 32.3385 20.897 32.2369C19.9245 31.8438 19.0739 31.1994 18.4321 30.3697C17.7904 29.54 17.3805 28.5547 17.2444 27.5146C17.2259 27.2976 17.2259 27.0794 17.2444 26.8623C17.2509 26.7058 17.3226 26.6601 17.4531 26.7449C18.1477 27.0987 18.9063 27.3094 19.6838 27.3646C19.436 27.1689 19.2011 26.9602 18.9729 26.7449C17.277 25.1339 16.6182 21.8726 17.9749 19.8114C18.0858 19.6549 18.1575 19.6549 18.2945 19.8114C21.4123 23.3532 25.228 25.0034 29.8786 25.6883C29.996 25.7078 29.996 25.6883 29.996 25.5513C29.859 24.7506 29.8789 23.931 30.0547 23.1379C30.2678 22.3042 30.657 21.5258 31.1961 20.855C31.7087 20.2034 32.3476 19.662 33.0746 19.2635C33.8129 18.8856 34.6211 18.6636 35.4489 18.6113C36.302 18.5572 37.1562 18.6978 37.947 19.0222C38.5329 19.2817 39.0743 19.6317 39.5516 20.0593C39.6559 20.155 39.754 20.2574 39.8451 20.3659C39.8752 20.396 39.913 20.4175 39.9543 20.4278C39.9957 20.4381 40.0391 20.437 40.0799 20.4246C41.25 20.1326 42.3786 19.6943 43.439 19.12C43.462 19.1075 43.4878 19.1009 43.514 19.1009C43.5402 19.1009 43.566 19.1075 43.589 19.12C43.6197 19.142 43.6092 19.1786 43.5989 19.2141C43.5939 19.2315 43.589 19.2486 43.589 19.2635C43.3918 19.8783 43.0821 20.4511 42.6759 20.9529C42.4084 21.2855 41.7366 22.1074 41.28 22.1857Z" fill="#33CCFF"/>
</g>
<defs>
<clipPath id="clip0_950_946">
<rect width="60" height="60" rx="16" fill="white"/>
</clipPath>
</defs>
</svg>
